<?xml version="1.0" encoding="UTF-8"?><svg id="b" xmlns="http://www.w3.org/2000/svg" viewBox="0 0 340 340"><g id="c"><circle id="d" cx="170" cy="170" r="170" fill="#02658d"/><g id="e"><path d="M169,258.25v-94.5M190,121.75c23.2,0,42,18.8,42,42v31.5c0,34.79-28.21,63-63,63s-63-28.21-63-63v-31.5c0-23.2,18.8-42,42-42h42ZM191.26,88.99l19.74-19.74" fill="none" stroke="#f2f2f3" stroke-linecap="round" stroke-linejoin="round" stroke-width="17"/><path d="M263.5,268.75c.03-22.44-17.59-40.93-40-42M263.5,100.75c-.02,21.35-16.06,39.28-37.27,41.69M274,184.75h-42M74.5,268.75c-.03-22.44,17.59-40.93,40-42M74.5,100.75c.02,21.35,16.06,39.28,37.28,41.69M106,184.75h-42M127,69.25l19.74,19.74M137.5,123.12v-11.87c0-17.4,14.1-31.5,31.5-31.5s31.5,14.1,31.5,31.5v11.87" fill="none" stroke="#f2f2f3" stroke-linecap="round" stroke-linejoin="round" stroke-width="17"/></g></g></svg>