<?xml version="1.0" encoding="UTF-8"?><svg id="b" xmlns="http://www.w3.org/2000/svg" viewBox="0 0 1193.33 340"><g id="c"><path d="M404.69,260.89c-5.72,0-10.1-1.52-13.13-4.55-3.04-3.03-4.55-7.41-4.55-13.13V95.27c0-5.72,1.52-10.1,4.55-13.13s7.41-4.55,13.13-4.55h62.4c12.83,0,23.75,1.91,32.76,5.72,9.01,3.82,15.9,9.28,20.67,16.38,4.76,7.11,7.15,15.6,7.15,25.48,0,11.09-3.21,20.46-9.62,28.08-6.41,7.63-15.17,12.74-26.26,15.34v-3.9c12.83,1.91,22.79,6.76,29.9,14.56,7.11,7.8,10.66,17.94,10.66,30.42,0,16.29-5.5,28.91-16.51,37.83-11.01,8.93-26.3,13.39-45.89,13.39h-65.26ZM418.99,155.33h42.38c11.44,0,19.98-2.21,25.61-6.63,5.63-4.42,8.45-10.96,8.45-19.63s-2.82-15.21-8.45-19.63c-5.63-4.42-14.17-6.63-25.61-6.63h-42.38v52.52ZM418.99,235.67h46.8c11.79,0,20.45-2.29,26-6.89,5.55-4.59,8.32-11.48,8.32-20.67s-2.77-16.29-8.32-20.8c-5.55-4.5-14.21-6.76-26-6.76h-46.8v55.12Z" fill="#414142"/><path d="M602.28,263.49c-10.57,0-19.33-1.95-26.26-5.85-6.93-3.9-12.09-9.75-15.47-17.55-3.38-7.8-5.07-17.51-5.07-29.12v-62.92c0-5.54,1.38-9.66,4.16-12.35,2.77-2.69,6.76-4.03,11.96-4.03s9.23,1.34,12.09,4.03c2.86,2.69,4.29,6.8,4.29,12.35v63.44c0,9.01,1.82,15.69,5.46,20.02,3.64,4.33,9.45,6.5,17.42,6.5,8.67,0,15.77-2.99,21.32-8.97,5.54-5.98,8.32-13.91,8.32-23.79v-57.2c0-5.54,1.39-9.66,4.16-12.35,2.77-2.69,6.76-4.03,11.96-4.03s9.23,1.34,12.09,4.03c2.86,2.69,4.29,6.8,4.29,12.35v98.28c0,11.09-5.29,16.64-15.86,16.64-5.03,0-8.93-1.43-11.7-4.29-2.77-2.86-4.16-6.98-4.16-12.35v-19.76l3.64,7.8c-3.64,9.36-9.14,16.55-16.51,21.58-7.37,5.03-16.08,7.54-26.13,7.54Z" fill="#414142"/><path d="M759.58,310.29c-9.36,0-18.42-.87-27.17-2.6-8.75-1.73-16.68-4.42-23.79-8.06-3.29-1.73-5.5-3.81-6.63-6.24-1.13-2.43-1.47-4.9-1.04-7.41.43-2.51,1.47-4.72,3.12-6.63,1.65-1.91,3.68-3.21,6.11-3.9,2.42-.7,4.94-.35,7.54,1.04,7.62,3.81,14.86,6.28,21.71,7.41,6.84,1.13,12.7,1.69,17.55,1.69,11.61,0,20.32-2.82,26.13-8.45,5.81-5.63,8.71-14,8.71-25.09v-23.4h2.34c-2.6,8.84-8.02,15.91-16.25,21.19-8.23,5.29-17.55,7.93-27.95,7.93-11.44,0-21.41-2.64-29.9-7.93-8.5-5.29-15.08-12.7-19.76-22.23-4.68-9.53-7.02-20.62-7.02-33.28,0-9.53,1.34-18.16,4.03-25.87,2.69-7.71,6.5-14.34,11.44-19.89,4.94-5.55,10.92-9.83,17.94-12.87,7.02-3.03,14.78-4.55,23.27-4.55,10.75,0,20.15,2.65,28.21,7.93,8.06,5.29,13.3,12.26,15.73,20.93l-2.6,6.5v-18.46c0-5.37,1.43-9.45,4.29-12.22,2.86-2.77,6.8-4.16,11.83-4.16s9.19,1.39,11.96,4.16c2.77,2.77,4.16,6.85,4.16,12.22v100.1c0,20.63-5.46,36.14-16.38,46.54s-26.78,15.6-47.58,15.6ZM758.8,233.07c6.76,0,12.56-1.56,17.42-4.68,4.85-3.12,8.62-7.58,11.31-13.39,2.69-5.81,4.03-12.7,4.03-20.67,0-11.96-2.95-21.36-8.84-28.21-5.89-6.85-13.87-10.27-23.92-10.27-6.76,0-12.57,1.56-17.42,4.68-4.86,3.12-8.62,7.54-11.31,13.26-2.69,5.72-4.03,12.57-4.03,20.54,0,11.96,2.95,21.41,8.84,28.34,5.89,6.93,13.87,10.4,23.92,10.4Z" fill="#414142"/><path d="M871.19,262.97c-5.38,0-9.49-1.52-12.35-4.55-2.86-3.03-4.29-7.24-4.29-12.61V94.49c0-5.55,1.47-9.75,4.42-12.61,2.95-2.86,7.1-4.29,12.48-4.29h62.66c20.11,0,35.62,5.03,46.54,15.08,10.92,10.05,16.38,24.09,16.38,42.12s-5.46,32.11-16.38,42.25c-10.92,10.14-26.43,15.21-46.54,15.21h-46.28v53.56c0,5.38-1.39,9.58-4.16,12.61-2.77,3.03-6.93,4.55-12.48,4.55ZM887.83,165.99h41.08c11.79,0,20.71-2.64,26.78-7.93,6.07-5.29,9.1-13.04,9.1-23.27s-3.03-17.94-9.1-23.14c-6.07-5.2-15-7.8-26.78-7.8h-41.08v62.14Z" fill="#02658d"/><path d="M1030.57,107.75c-6.07,0-10.79-1.52-14.17-4.55-3.38-3.03-5.07-7.24-5.07-12.61s1.69-9.79,5.07-12.74c3.38-2.95,8.1-4.42,14.17-4.42s11.01,1.47,14.3,4.42c3.29,2.95,4.94,7.2,4.94,12.74s-1.65,9.58-4.94,12.61c-3.29,3.03-8.06,4.55-14.3,4.55ZM1030.57,262.71c-5.2,0-9.19-1.56-11.96-4.68-2.77-3.12-4.16-7.45-4.16-13v-95.42c0-5.72,1.38-10.1,4.16-13.13,2.77-3.03,6.76-4.55,11.96-4.55s9.23,1.52,12.09,4.55c2.86,3.04,4.29,7.41,4.29,13.13v95.42c0,5.55-1.39,9.88-4.16,13-2.78,3.12-6.85,4.68-12.22,4.68Z" fill="#02658d"/><path d="M1090.37,262.97c-5.2,0-9.19-1.43-11.96-4.29-2.77-2.86-4.16-6.98-4.16-12.35v-98.28c0-5.37,1.38-9.45,4.16-12.22,2.77-2.77,6.67-4.16,11.7-4.16s8.93,1.39,11.7,4.16c2.77,2.77,4.16,6.85,4.16,12.22v17.68l-2.86-6.5c3.81-9.18,9.75-16.16,17.81-20.93,8.06-4.77,17.2-7.15,27.43-7.15s18.63,1.91,25.22,5.72c6.59,3.81,11.53,9.58,14.82,17.29,3.29,7.71,4.94,17.46,4.94,29.25v62.92c0,5.37-1.39,9.49-4.16,12.35-2.78,2.86-6.76,4.29-11.96,4.29s-9.23-1.43-12.09-4.29c-2.86-2.86-4.29-6.98-4.29-12.35v-61.36c0-9.88-1.87-17.07-5.59-21.58-3.73-4.5-9.49-6.76-17.29-6.76-9.53,0-17.12,2.99-22.75,8.97-5.63,5.98-8.45,13.91-8.45,23.79v56.94c0,11.09-5.46,16.64-16.38,16.64Z" fill="#02658d"/></g><g id="d"><circle id="e" cx="170" cy="170" r="170" fill="#02658d"/><g id="f"><path d="M169,258.25v-94.5M190,121.75c23.2,0,42,18.8,42,42v31.5c0,34.79-28.21,63-63,63s-63-28.21-63-63v-31.5c0-23.2,18.8-42,42-42h42ZM191.26,88.99l19.74-19.74" fill="none" stroke="#f2f2f3" stroke-linecap="round" stroke-linejoin="round" stroke-width="17"/><path d="M263.5,268.75c.03-22.44-17.59-40.93-40-42M263.5,100.75c-.02,21.35-16.06,39.28-37.27,41.69M274,184.75h-42M74.5,268.75c-.03-22.44,17.59-40.93,40-42M74.5,100.75c.02,21.35,16.06,39.28,37.28,41.69M106,184.75h-42M127,69.25l19.74,19.74M137.5,123.12v-11.87c0-17.4,14.1-31.5,31.5-31.5s31.5,14.1,31.5,31.5v11.87" fill="none" stroke="#f2f2f3" stroke-linecap="round" stroke-linejoin="round" stroke-width="17"/></g></g></svg>